<svg width="32" height="32" viewBox="0 0 32 32" fill="none" xmlns="http://www.w3.org/2000/svg">
<g clip-path="url(#clip0_66_4901)">
<path d="M12.2187 9.38346C12.4726 9.33341 12.6379 9.08693 12.5878 8.83296C12.3767 7.7626 12.9142 7.05444 13.4875 6.74858C14.1909 6.37337 15.0213 6.50689 15.603 7.08865C15.786 7.27167 16.0828 7.27167 16.2658 7.08865C17.0411 6.31333 18.0351 6.45182 18.6304 6.90868C19.2856 7.41147 19.6931 8.45558 18.8717 9.87833C18.1196 11.181 16.6742 12.3193 15.9347 12.5966C15.6482 12.4883 15.2537 12.248 14.8479 11.9318C14.6437 11.7728 14.3492 11.8093 14.1901 12.0136C14.0311 12.2178 14.0677 12.5122 14.2719 12.6713C14.8489 13.1208 15.3963 13.4299 15.8131 13.5415C15.8528 13.5522 15.8936 13.5575 15.9344 13.5575C15.9752 13.5575 16.0159 13.5522 16.0557 13.5415C17.0516 13.2747 18.8146 11.8518 19.6834 10.347C20.8091 8.39723 20.1271 6.8756 19.201 6.16499C18.2231 5.4146 16.9105 5.42248 15.9352 6.14001C15.0867 5.50946 13.9937 5.41624 13.0463 5.92157C11.9536 6.50445 11.4126 7.71841 11.6681 9.01429C11.7182 9.26826 11.9648 9.43361 12.2187 9.38346Z" fill="#298AF1"/>
<path d="M16.3067 16.8944C16.2181 16.7785 16.0804 16.7105 15.9345 16.7105C15.7885 16.7105 15.6508 16.7785 15.5622 16.8944L12.2145 21.2721C12.086 21.4402 12.086 21.6734 12.2145 21.8415L15.5622 26.2192C15.6509 26.3351 15.7885 26.4031 15.9345 26.4031C16.0805 26.4031 16.2181 26.3351 16.3067 26.2192L19.6544 21.8415C19.7829 21.6734 19.7829 21.4402 19.6544 21.2721L16.3067 16.8944ZM15.9344 25.163L13.1768 21.5568L15.9344 17.9507L18.692 21.5568L15.9344 25.163Z" fill="#298AF1"/>
<path d="M12.0843 13.8017C11.2155 12.2969 9.45249 10.874 8.45656 10.6071C8.37712 10.5859 8.29341 10.5859 8.21393 10.6071C7.218 10.874 5.45499 12.2969 4.58617 13.8017C3.46047 15.7514 4.14252 17.2731 5.06857 17.9837C5.88477 18.6099 6.93408 18.708 7.82577 18.3062C7.72557 18.7924 7.44319 19.2436 7.0062 19.6057C6.85403 19.7317 6.79727 19.9396 6.86429 20.1255C6.93131 20.3113 7.10763 20.4352 7.30522 20.4352H9.36531C9.56286 20.4352 9.73927 20.3113 9.80624 20.1255C9.87321 19.9396 9.81646 19.7317 9.66433 19.6057C9.22734 19.2436 8.94496 18.7924 8.84476 18.3062C9.19912 18.4659 9.57837 18.5466 9.95804 18.5466C10.5337 18.5466 11.1102 18.361 11.6019 17.9837C12.528 17.2731 13.21 15.7514 12.0843 13.8017ZM11.0313 17.24C10.4359 17.6969 9.44199 17.8353 8.66666 17.06C8.57513 16.9685 8.4552 16.9227 8.33527 16.9227C8.21533 16.9227 8.09535 16.9685 8.00387 17.06C7.2285 17.8353 6.23458 17.6968 5.63923 17.24C4.98403 16.7372 4.57656 15.6931 5.39796 14.2704C6.15013 12.9676 7.59584 11.8292 8.33527 11.552C9.07469 11.8293 10.5204 12.9676 11.2726 14.2704C12.094 15.6931 11.6865 16.7372 11.0313 17.24Z" fill="#298AF1"/>
<path d="M25.9303 13.9242C26.0221 13.6605 26.0702 13.3814 26.0702 13.0994C26.0702 11.7163 24.945 10.5911 23.5619 10.5911C22.1789 10.5911 21.0537 11.7163 21.0537 13.0994C21.0537 13.3814 21.1018 13.6605 21.1936 13.9242C20.019 14.1322 19.124 15.1606 19.124 16.394C19.124 17.7771 20.2492 18.9023 21.6322 18.9023C22.1239 18.9023 22.5906 18.759 22.9854 18.5062C22.848 18.9154 22.5821 19.2928 22.2045 19.6056C22.0523 19.7317 21.9955 19.9396 22.0626 20.1254C22.1296 20.3113 22.3059 20.4352 22.5035 20.4352H24.6204C24.818 20.4352 24.9944 20.3113 25.0614 20.1254C25.1283 19.9396 25.0716 19.7317 24.9195 19.6056C24.5418 19.2928 24.276 18.9154 24.1386 18.5062C24.5333 18.759 25.0001 18.9023 25.4917 18.9023C26.8748 18.9023 27.9999 17.7771 27.9999 16.394C27.9999 15.1606 27.105 14.1322 25.9303 13.9242ZM25.4917 17.9649C24.8202 17.9649 24.2229 17.5385 24.0053 16.9038C23.9404 16.7143 23.7622 16.5871 23.562 16.5871C23.3618 16.5871 23.1836 16.7143 23.1187 16.9038C22.9011 17.5385 22.3037 17.9649 21.6323 17.9649C20.7661 17.9649 20.0614 17.2602 20.0614 16.394C20.0614 15.5278 20.7661 14.8231 21.6323 14.8231C21.7214 14.8231 21.811 14.8308 21.8988 14.8457C22.0914 14.8787 22.2838 14.7889 22.3824 14.6203C22.4809 14.4518 22.4647 14.2399 22.3417 14.0883C22.1123 13.8059 21.9911 13.4638 21.9911 13.0993C21.9911 12.2332 22.6958 11.5284 23.562 11.5284C24.4282 11.5284 25.1329 12.2331 25.1329 13.0993C25.1329 13.4638 25.0117 13.8058 24.7824 14.0884C24.6594 14.24 24.6432 14.4518 24.7417 14.6203C24.8403 14.7888 25.0329 14.8789 25.2253 14.8457C25.313 14.8307 25.4027 14.8231 25.4918 14.8231C26.358 14.8231 27.0627 15.5278 27.0627 16.394C27.0626 17.2602 26.3579 17.9649 25.4917 17.9649Z" fill="#298AF1"/>
<path d="M13.0662 10.3443H13.0658C12.807 10.3443 12.5973 10.5541 12.5973 10.8129C12.5973 11.0718 12.8073 11.2816 13.0662 11.2816C13.325 11.2816 13.5348 11.0718 13.5348 10.8129C13.5348 10.5541 13.325 10.3443 13.0662 10.3443Z" fill="#298AF1"/>
</g>
<defs>
<clipPath id="clip0_66_4901">
<rect width="24" height="24" fill="white" transform="translate(4 4)"/>
</clipPath>
</defs>
</svg>
