<svg width="32" height="32" viewBox="0 0 32 32" fill="none" xmlns="http://www.w3.org/2000/svg">
<g clip-path="url(#clip0_66_4911)">
<path d="M19.0265 13.6738C19.1981 13.2695 19.2889 12.8315 19.2889 12.3877C19.2889 10.5742 17.8135 9.09888 16 9.09888C14.1865 9.09888 12.7112 10.5743 12.7112 12.3877C12.7112 12.8314 12.8019 13.2692 12.9734 13.6735C12.209 13.7554 11.5056 14.0989 10.9636 14.6613C10.784 14.8477 10.7894 15.1445 10.9759 15.3241C11.1623 15.5038 11.4591 15.4983 11.6388 15.3119C12.0862 14.8477 12.6875 14.592 13.3318 14.592C13.465 14.592 13.5993 14.6034 13.7308 14.6258C13.9229 14.6587 14.1158 14.5688 14.2143 14.4002C14.3128 14.2317 14.2966 14.0198 14.1735 13.8682C13.8303 13.4453 13.6488 12.9334 13.6488 12.3877C13.6488 11.0912 14.7036 10.0365 16 10.0365C17.2965 10.0365 18.3513 11.0913 18.3513 12.3877C18.3513 12.9334 18.1699 13.4453 17.8266 13.8682C17.7035 14.0198 17.6873 14.2317 17.7858 14.4002C17.8844 14.5688 18.0769 14.6588 18.2694 14.6258C18.4009 14.6033 18.5351 14.592 18.6683 14.592C19.9648 14.592 21.0196 15.6468 21.0196 16.9433C21.0196 18.2398 19.9648 19.2946 18.6683 19.2946C18.1401 19.2946 17.6413 19.1236 17.2257 18.8C17.0843 18.6899 16.8927 18.6701 16.7318 18.7487C16.5709 18.8273 16.4689 18.9908 16.4689 19.1698C16.4689 20.0063 16.5798 20.8624 17.2145 21.6194H14.7855C15.4203 20.8624 15.5312 20.0063 15.5312 19.1698C15.5312 18.9908 15.4291 18.8273 15.2683 18.7487C15.1073 18.6701 14.9158 18.6899 14.7744 18.8C14.3587 19.1236 13.8599 19.2946 13.3318 19.2946C12.6874 19.2946 12.0861 19.0389 11.6387 18.5747C11.4589 18.3882 11.1622 18.3828 10.9758 18.5624C10.7894 18.7421 10.7839 19.0389 10.9636 19.2253C11.5894 19.8746 12.4304 20.2322 13.3318 20.2322C13.7479 20.2322 14.1512 20.1562 14.528 20.0089C14.401 20.6802 14.0585 21.2098 13.2401 21.6823C13.0563 21.7884 12.9667 22.0046 13.0217 22.2096C13.0766 22.4146 13.2623 22.5571 13.4745 22.5571H18.5256C18.7378 22.5571 18.9235 22.4146 18.9784 22.2096C19.0333 22.0047 18.9437 21.7884 18.76 21.6823C17.9416 21.2097 17.599 20.6802 17.4721 20.0089C17.8489 20.1562 18.2521 20.2322 18.6683 20.2322C20.4818 20.2322 21.9571 18.7568 21.9571 16.9433C21.9571 15.2509 20.672 13.8529 19.0265 13.6738Z" fill="white"/>
<path d="M27.7341 14.9905L26.6765 13.1359L26.666 11.1649C26.7197 10.3924 26.3248 9.6438 25.6556 9.25325L23.8198 8.18027L22.7466 6.34415C22.3841 5.72435 21.7097 5.3376 20.9873 5.33479L18.8641 5.32349L17.039 4.28277C16.4101 3.912 15.6258 3.90529 14.9905 4.26594L13.1359 5.32353L11.1649 5.33404C10.3927 5.2798 9.64376 5.67518 9.25321 6.34433L8.18024 8.18022L6.34421 9.25329C5.72437 9.61581 5.33761 10.2902 5.33485 11.0126L5.32355 13.1358L4.28282 14.9608C3.91201 15.5898 3.90526 16.3741 4.26595 17.0095L5.32355 18.864L5.33405 20.835C5.28028 21.6076 5.67519 22.3562 6.34439 22.7468L8.18024 23.8198L9.2534 25.6558C9.61587 26.2756 10.2903 26.6623 11.0127 26.6652L13.1359 26.6765L14.9608 27.7172C15.2804 27.9056 15.6401 28 16 28C16.3484 28 16.697 27.9115 17.0095 27.7341L18.8641 26.6765L20.8351 26.666C21.6081 26.7199 22.3562 26.3248 22.7468 25.6557L23.8199 23.8198L25.6559 22.7467C26.2756 22.3842 26.6624 21.7098 26.6653 20.9873L26.6765 18.8641L27.7172 17.0393C28.088 16.4103 28.0947 15.626 27.7341 14.9905ZM26.9084 16.5649C26.9071 16.5671 26.9057 16.5693 26.9045 16.5716L25.8011 18.5064C25.7612 18.5764 25.74 18.6556 25.7396 18.7362L25.7276 20.9829C25.7261 21.3758 25.5172 21.7415 25.1826 21.9372L23.2405 23.0723C23.171 23.113 23.113 23.1709 23.0723 23.2405L21.9371 25.1827C21.7234 25.5489 21.3121 25.7634 20.8887 25.7297C20.8755 25.7286 20.8629 25.7284 20.8487 25.7282L18.7361 25.7395C18.6555 25.7399 18.5764 25.7611 18.5064 25.801L16.5459 26.919C16.2018 27.1144 15.7762 27.1103 15.4351 26.9083C15.4329 26.9069 15.4307 26.9057 15.4284 26.9044L13.4936 25.801C13.4236 25.761 13.3444 25.7398 13.2639 25.7394L11.0171 25.7275C10.6242 25.7259 10.2585 25.517 10.0628 25.1824L8.92773 23.2404C8.88704 23.1708 8.82909 23.1129 8.75953 23.0722L6.81727 21.937C6.45104 21.7232 6.23629 21.3117 6.27023 20.8886C6.27131 20.8753 6.27178 20.8619 6.27173 20.8486L6.26053 18.736C6.2601 18.6554 6.23887 18.5762 6.19897 18.5062L5.08095 16.5458C4.8856 16.2017 4.88977 15.776 5.09168 15.435C5.09299 15.4327 5.09431 15.4305 5.09553 15.4283L6.19893 13.4934C6.23887 13.4234 6.2601 13.3443 6.26048 13.2637L6.27243 11.0169C6.27393 10.624 6.48283 10.2583 6.81745 10.0626L8.75953 8.92758C8.82909 8.88688 8.88704 8.82894 8.92773 8.75937L10.0629 6.81711C10.2619 6.47621 10.6322 6.26661 11.0237 6.26661C11.0528 6.26661 11.082 6.26778 11.1113 6.27012C11.1246 6.27115 11.1379 6.27144 11.1513 6.27162L13.2639 6.26037C13.3445 6.25995 13.4236 6.23876 13.4936 6.19882L15.4541 5.08079C15.7981 4.88549 16.2239 4.88962 16.5649 5.09158C16.5671 5.09289 16.5694 5.09415 16.5716 5.09547L18.5064 6.19887C18.5764 6.23881 18.6556 6.26 18.7362 6.26042L20.983 6.27237C21.3758 6.27392 21.7416 6.48282 21.9372 6.81739L23.0723 8.75947C23.113 8.82904 23.171 8.88698 23.2405 8.92767L25.1828 10.0628C25.549 10.2766 25.7638 10.6881 25.7298 11.1112C25.7287 11.1245 25.7283 11.1378 25.7283 11.1512L25.7395 13.2638C25.7399 13.3444 25.7612 13.4235 25.8011 13.4935L26.9191 15.4541C27.1145 15.7983 27.1103 16.2239 26.9084 16.5649Z" fill="white"/>
<path d="M24.8039 13.6377L24.7909 11.1863C24.79 11.0206 24.7017 10.8676 24.5587 10.784L22.449 9.55103L21.2159 7.44132C21.1323 7.29824 20.9794 7.20997 20.8137 7.20908L18.3623 7.19605L16.2322 5.98131C16.0883 5.89918 15.9117 5.89918 15.7677 5.98131L13.6377 7.19605L11.1863 7.20908C11.0206 7.20997 10.8677 7.29824 10.784 7.44132L9.55102 9.55099L7.44131 10.784C7.29824 10.8676 7.20991 11.0206 7.20907 11.1863L7.19604 13.6376L5.9813 15.7678C5.89921 15.9117 5.89921 16.0883 5.9813 16.2323L7.19604 18.3623L7.20907 20.8138C7.20996 20.9795 7.29824 21.1324 7.44131 21.216L9.55098 22.4491L10.784 24.5588C10.8677 24.7018 11.0206 24.7901 11.1863 24.791L13.6376 24.804L15.7677 26.0188C15.8397 26.0598 15.9198 26.0803 15.9999 26.0803C16.0801 26.0803 16.1602 26.0598 16.2322 26.0188L18.3623 24.804L20.8137 24.791C20.9794 24.7901 21.1323 24.7018 21.2159 24.5588L22.449 22.4491L24.5587 21.2161C24.7017 21.1324 24.7901 20.9795 24.7909 20.8138L24.8039 18.3625L26.0186 16.2323C26.1007 16.0884 26.1007 15.9118 26.0186 15.7679L24.8039 13.6377ZM23.9286 18.0047C23.8886 18.0747 23.8674 18.1539 23.867 18.2345L23.8547 20.5413L21.8697 21.7015C21.8001 21.7422 21.7422 21.8002 21.7015 21.8697L20.5413 23.8547L18.2344 23.867C18.1537 23.8674 18.0746 23.8886 18.0046 23.9286L15.9999 25.0718L13.9952 23.9286C13.9252 23.8886 13.8461 23.8674 13.7655 23.867L11.4586 23.8547L10.2984 21.8697C10.2577 21.8001 10.1998 21.7422 10.1302 21.7015L8.14525 20.5414L8.13297 18.2344C8.13255 18.1538 8.11131 18.0746 8.07142 18.0046L6.92817 16L8.07142 13.9952C8.11136 13.9253 8.1326 13.8461 8.13297 13.7655L8.14525 11.4587L10.1303 10.2985C10.1999 10.2578 10.2578 10.1998 10.2985 10.1303L11.4586 8.14531L13.7656 8.13303C13.8463 8.1326 13.9253 8.11141 13.9954 8.07147L16 6.92827L18.0047 8.07152C18.0747 8.11146 18.1539 8.13265 18.2344 8.13307L20.5414 8.14535L21.7016 10.1304C21.7422 10.1999 21.8002 10.2579 21.8698 10.2986L23.8548 11.4587L23.8671 13.7657C23.8675 13.8463 23.8887 13.9254 23.9286 13.9954L25.0718 16.0001L23.9286 18.0047Z" fill="white"/>
<path d="M10.9805 16.9433C10.9805 16.6844 10.7706 16.4745 10.5117 16.4745H10.5113C10.2525 16.4745 10.0427 16.6844 10.0427 16.9433C10.0427 17.2023 10.2528 17.4121 10.5117 17.4121C10.7706 17.4121 10.9805 17.2023 10.9805 16.9433Z" fill="white"/>
</g>
<defs>
<clipPath id="clip0_66_4911">
<rect width="24" height="24" fill="white" transform="translate(4 4)"/>
</clipPath>
</defs>
</svg>
