<svg width="32" height="32" viewBox="0 0 32 32" fill="none" xmlns="http://www.w3.org/2000/svg">
<path d="M20.2187 9.90627V5.40624C20.2187 4.63084 19.5878 4 18.8125 4H6.62499C5.84959 4 5.21875 4.63084 5.21875 5.40624V26.5938C5.21875 27.3692 5.84959 28 6.62499 28H18.8125C19.5878 28 20.2187 27.3692 20.2187 26.5938V23.0312C23.8373 23.0312 26.7812 20.0873 26.7812 16.4687C26.7812 12.8502 23.8373 9.90627 20.2187 9.90627ZM20.2187 19.9844C18.2802 19.9844 16.7031 18.4073 16.7031 16.4687C16.7031 14.5302 18.2802 12.9531 20.2187 12.9531C22.1572 12.9531 23.7343 14.5302 23.7343 16.4687C23.7343 18.4073 22.1572 19.9844 20.2187 19.9844ZM14.9151 18.3437H16.1799C16.6232 19.2948 17.3927 20.0643 18.3437 20.5076V21.7724C16.7479 21.2066 15.4809 19.9396 14.9151 18.3437ZM18.3437 11.1651V12.4299C17.3927 12.8732 16.6232 13.6428 16.1799 14.5938H14.9151C15.4809 12.9979 16.7479 11.7309 18.3437 11.1651ZM14.5938 16.4687C14.5938 16.1494 14.6205 15.8362 14.6719 15.5313H15.8649C15.7999 15.8336 15.7656 16.1472 15.7656 16.4687C15.7656 16.7903 15.7998 17.1039 15.8649 17.4062H14.6719C14.6206 17.1013 14.5938 16.7881 14.5938 16.4687ZM24.5726 15.5313H25.7656C25.8169 15.8362 25.8437 16.1494 25.8437 16.4687C25.8437 16.7881 25.8169 17.1013 25.7656 17.4062H24.5726C24.6376 17.1039 24.6719 16.7903 24.6719 16.4687C24.6719 16.1472 24.6376 15.8336 24.5726 15.5313ZM25.5224 14.5938H24.2576C23.8143 13.6427 23.0448 12.8732 22.0937 12.4299V11.1651C23.6896 11.7309 24.9566 12.9979 25.5224 14.5938ZM21.1562 10.9219V12.1149C20.8539 12.0499 20.5402 12.0156 20.2187 12.0156C19.8972 12.0156 19.5835 12.0499 19.2812 12.1149V10.9219C19.5862 10.8705 19.8993 10.8438 20.2187 10.8438C20.538 10.8438 20.8513 10.8705 21.1562 10.9219ZM6.62499 4.9375H18.8125C19.071 4.9375 19.2812 5.14778 19.2812 5.40624V5.87499H15.5312C15.4069 5.87499 15.2876 5.9244 15.1998 6.01229L14.3996 6.81249H11.0379L10.2378 6.01229C10.1499 5.9244 10.0306 5.87499 9.90632 5.87499H6.15625V5.40624C6.15625 5.14778 6.36657 4.9375 6.62499 4.9375ZM18.8125 27.0625H6.62499C6.36653 27.0625 6.15625 26.8522 6.15625 26.5938V26.125H19.2812V26.5938C19.2812 26.8522 19.071 27.0625 18.8125 27.0625ZM19.2812 25.1875H6.15625V6.81249H9.71208L10.5122 7.61269C10.6002 7.70058 10.7194 7.74999 10.8437 7.74999H14.5938C14.7181 7.74999 14.8373 7.70058 14.9252 7.61269L15.7254 6.81249H19.2812V9.97307C18.9607 10.0191 18.6476 10.0884 18.3437 10.1791V9.15623C18.3437 8.89739 18.1338 8.68748 17.8749 8.68748H7.56249C7.30365 8.68748 7.09374 8.89739 7.09374 9.15623V14.3596C7.09374 14.6184 7.30365 14.8283 7.56249 14.8283C7.82133 14.8283 8.03124 14.6184 8.03124 14.3596V9.62498H17.4062V10.54C15.1909 11.5951 13.6563 13.8561 13.6563 16.4687C13.6563 19.0814 15.1909 21.3424 17.4062 22.3975V23.3125H8.03124V18.5783C8.03124 18.3195 7.82133 18.1096 7.56249 18.1096C7.30365 18.1096 7.09374 18.3195 7.09374 18.5783V23.7813C7.09374 24.0401 7.30365 24.25 7.56249 24.25H17.8749C18.1338 24.25 18.3437 24.0401 18.3437 23.7813V22.7584C18.6476 22.8491 18.9607 22.9184 19.2812 22.9644V25.1875ZM19.2812 22.0156V20.8226C19.5835 20.8876 19.8972 20.9219 20.2187 20.9219C20.5402 20.9219 20.8539 20.8876 21.1562 20.8226V22.0156C20.8513 22.067 20.538 22.0937 20.2187 22.0937C19.8994 22.0937 19.5862 22.067 19.2812 22.0156ZM22.0937 21.7724V20.5076C23.0448 20.0643 23.8143 19.2947 24.2576 18.3437H25.5224C24.9566 19.9396 23.6896 21.2065 22.0937 21.7724Z" fill="white"/>
<path d="M21.1563 14.3594H19.2812C19.0224 14.3594 18.8125 14.5693 18.8125 14.8281C18.8125 15.087 19.0224 15.2969 19.2812 15.2969H20.4911L19.543 17.9517C19.4559 18.1955 19.583 18.4637 19.8268 18.5508C19.8789 18.5694 19.9321 18.5783 19.9844 18.5783C20.1769 18.5783 20.3574 18.4587 20.4258 18.267L21.5977 14.9858C21.649 14.8422 21.6273 14.6827 21.5395 14.5581C21.4517 14.4335 21.3087 14.3594 21.1563 14.3594Z" fill="white"/>
<path d="M7.5625 16.9378C7.82134 16.9378 8.03125 16.7279 8.03125 16.4691V16.4687C8.03125 16.2099 7.82134 16.0002 7.5625 16.0002C7.30366 16.0002 7.09375 16.2102 7.09375 16.4691C7.09375 16.728 7.30366 16.9378 7.5625 16.9378Z" fill="white"/>
</svg>
