<svg width="32" height="32" viewBox="0 0 32 32" fill="none" xmlns="http://www.w3.org/2000/svg">
<g clip-path="url(#clip0_66_4902)">
<path d="M28 12.4362C28 7.78448 24.2156 4 19.5638 4C15.3273 4 11.8102 7.13896 11.2161 11.2132C10.893 11.2607 10.5711 11.3271 10.2564 11.4114C8.07981 11.9946 6.26058 13.3906 5.13392 15.342C4.00717 17.2935 3.70785 19.567 4.29112 21.7436C4.8743 23.9203 6.27028 25.7395 8.22174 26.8662C9.52168 27.6167 10.9642 28 12.4261 28C13.1588 28 13.8966 27.9037 14.6233 27.709C16.2586 27.2708 17.7088 26.3627 18.8171 25.0829C19.8754 23.8609 20.5536 22.3789 20.7868 20.784C24.8611 20.1898 28 16.6726 28 12.4362ZM25.0315 17.5629C24.8483 16.9522 24.9195 16.2828 25.2462 15.7169C25.5737 15.1496 26.1198 14.7526 26.7423 14.6069C26.4038 15.7242 25.8109 16.7321 25.0315 17.5629ZM22.239 19.4419C21.6283 18.5819 20.6324 18.0602 19.5638 18.0602C18.4953 18.0602 17.4994 18.5819 16.8887 19.4419C16.1395 19.1548 15.4477 18.7509 14.8358 18.2525C15.2736 17.2944 15.227 16.1726 14.6933 15.2482C14.1589 14.3227 13.209 13.721 12.1588 13.6222C12.0971 13.2358 12.0651 12.8397 12.0651 12.4362C12.0651 12.0327 12.0971 11.6365 12.1588 11.2501C13.209 11.1513 14.1589 10.5496 14.6933 9.62415C15.2269 8.69979 15.2736 7.57796 14.8358 6.61985C15.4478 6.12146 16.1395 5.71757 16.8887 5.43053C17.4994 6.29048 18.4953 6.81217 19.5639 6.81217C20.6325 6.81217 21.6283 6.29053 22.239 5.43057C22.9882 5.71762 23.68 6.12151 24.2919 6.6199C23.854 7.57805 23.9007 8.69988 24.4344 9.62419C24.9688 10.5497 25.9187 11.1514 26.9689 11.2502C27.0305 11.6366 27.0626 12.0327 27.0626 12.4362C27.0626 12.8396 27.0306 13.2356 26.969 13.6219C25.9173 13.7199 24.9688 14.3226 24.4344 15.2482C23.9008 16.1727 23.8541 17.2944 24.2919 18.2526C23.6799 18.7509 22.9881 19.1548 22.239 19.4419ZM19.5638 19.935C18.976 19.935 18.4037 19.8669 17.8544 19.7384C18.2919 19.2721 18.9087 18.9977 19.5638 18.9977C20.2189 18.9977 20.8358 19.2721 21.2733 19.7384C20.724 19.8669 20.1517 19.935 19.5638 19.935ZM13.408 18.3367C13.7565 18.481 13.8823 18.8746 13.7444 19.3893C13.5846 19.9858 13.1503 20.5822 12.8912 20.8141C12.5508 20.7428 11.8765 20.4434 11.4399 20.0068C11.063 19.6299 10.9752 19.2263 11.2048 18.9269C11.3077 18.7928 11.481 18.6895 11.6809 18.6895C11.7832 18.6895 11.8926 18.7165 12.0031 18.7803C12.1107 18.8425 12.2388 18.8593 12.3587 18.8271C12.4788 18.7949 12.5812 18.7164 12.6433 18.6088C12.8319 18.2824 13.1719 18.2389 13.408 18.3367ZM14.0961 17.5629C13.3167 16.7321 12.7239 15.7243 12.3854 14.607C13.0077 14.7529 13.5539 15.1497 13.8814 15.7169C14.2081 16.2828 14.2793 16.9522 14.0961 17.5629ZM12.7539 17.4104C12.5051 17.4819 12.2747 17.6168 12.0854 17.8073C11.4895 17.6456 10.8518 17.8472 10.4611 18.3564C10.0294 18.9189 9.9597 19.8524 10.777 20.6697C11.4243 21.317 12.4792 21.768 13.0211 21.768C13.1034 21.768 13.1842 21.7464 13.2555 21.7053C13.7249 21.4342 14.4129 20.5162 14.6498 19.632C14.6773 19.5297 14.6977 19.4303 14.7118 19.3339C15.1589 19.6493 15.6378 19.9224 16.1428 20.1474C15.9123 21.5967 14.8421 22.7981 13.4103 23.1818C11.4135 23.7168 9.35327 22.5275 8.81818 20.5306C8.55898 19.5632 8.69205 18.5528 9.19274 17.6855C9.69351 16.8182 10.502 16.1978 11.4693 15.9386C11.5953 15.9048 11.7234 15.8776 11.8525 15.8571C12.0981 16.4085 12.4011 16.9287 12.7539 17.4104ZM26.7423 10.2655C26.1199 10.1197 25.5737 9.72272 25.2462 9.15543C24.9195 8.58959 24.8483 7.92017 25.0315 7.30948C25.811 8.14028 26.4038 9.14816 26.7423 10.2655ZM21.2733 5.13402C20.8358 5.6002 20.2189 5.87468 19.5638 5.87468C18.9087 5.87468 18.2919 5.6002 17.8544 5.13397C18.4037 5.00545 18.9759 4.93744 19.5638 4.93744C20.1517 4.93744 20.724 5.00545 21.2733 5.13402ZM14.0961 7.30948C14.2793 7.92012 14.2081 8.58955 13.8814 9.15543C13.554 9.72253 13.0072 10.1194 12.3854 10.2654C12.7239 9.14807 13.3167 8.14023 14.0961 7.30948ZM10.499 12.3169C10.7071 12.2612 10.9186 12.2143 11.1316 12.1765C11.129 12.2627 11.1276 12.3493 11.1276 12.4362C11.1276 12.6495 11.1356 12.861 11.1512 13.0703C11.0198 13.1336 10.8827 13.1845 10.7416 13.2223C10.108 13.3921 9.44031 13.2861 8.89679 12.9481C9.39902 12.6802 9.93551 12.4679 10.499 12.3169ZM5.82936 16.0198C6.16608 16.5629 6.2714 17.2294 6.10192 17.862C5.9321 18.4958 5.50618 19.0213 4.94128 19.323C4.97601 18.1785 5.27533 17.0523 5.82936 16.0198ZM6.06456 23.5149C6.70464 23.4937 7.33619 23.7359 7.80018 24.1998C8.26317 24.6629 8.50527 25.2928 8.48521 25.9315C7.48913 25.3143 6.66682 24.4886 6.06456 23.5149ZM14.3807 26.8034C13.8172 26.9544 13.2464 27.0388 12.6776 27.0579C12.9793 26.4934 13.5046 26.0679 14.1381 25.8981C14.7718 25.7283 15.4397 25.8343 15.9833 26.1726C15.4831 26.4389 14.9467 26.6518 14.3807 26.8034ZM16.8413 25.6383C16.0283 24.9629 14.9292 24.7155 13.8955 24.9926C12.862 25.2694 12.0343 26.0326 11.6677 27.023C10.8817 26.9421 10.11 26.7353 9.3776 26.406C9.55407 25.366 9.21875 24.2927 8.46308 23.5369C7.70713 22.781 6.63349 22.4457 5.59312 22.6225C5.43324 22.263 5.30046 21.8883 5.19663 21.5009C5.09281 21.1135 5.02049 20.7227 4.97924 20.3314C5.96866 19.9644 6.73084 19.1372 7.00748 18.1046C7.28412 17.0723 7.03785 15.9751 6.36496 15.1626C6.83462 14.5112 7.39951 13.9463 8.03974 13.4831C8.6322 13.9748 9.37652 14.2394 10.1368 14.2394C10.4194 14.2394 10.7042 14.2028 10.9843 14.1278C11.0842 14.101 11.1826 14.0696 11.2794 14.0335C11.3404 14.3508 11.4194 14.6619 11.515 14.9656C11.4182 14.9851 11.322 15.0076 11.2269 15.0331C10.0176 15.3571 9.00698 16.1326 8.38101 17.2167C7.75504 18.3009 7.58878 19.5639 7.91281 20.7731C8.47321 22.8647 10.3717 24.2474 12.441 24.2474C12.8414 24.2474 13.2483 24.1957 13.6529 24.0872C15.3796 23.6246 16.6855 22.2107 17.0343 20.485C17.3381 20.5807 17.6492 20.6596 17.9665 20.7207C17.9305 20.8174 17.899 20.9158 17.8723 21.0157C17.5951 22.0502 17.8429 23.1498 18.5191 23.9629C18.0544 24.6056 17.4887 25.1715 16.8413 25.6383ZM19.0538 23.1062C18.7143 22.5621 18.6076 21.8931 18.7777 21.2584C18.8156 21.1173 18.8665 20.9802 18.9297 20.8488C19.1391 20.8644 19.3505 20.8724 19.5638 20.8724C19.6508 20.8724 19.7375 20.871 19.8239 20.8684C19.6839 21.6648 19.4211 22.4177 19.0538 23.1062Z" fill="white"/>
<path d="M19.5638 7.74942C19.5377 7.74942 19.5118 7.74984 19.4857 7.75036L19.4792 7.75045C19.2204 7.75514 19.0144 7.96873 19.019 8.22756C19.0236 8.48348 19.2326 8.68784 19.4875 8.68784C19.4904 8.68784 19.4932 8.68784 19.4961 8.68779L19.5028 8.6877C19.5231 8.68733 19.5434 8.6869 19.5639 8.6869C21.6313 8.6869 23.3132 10.3689 23.3132 12.4363C23.3132 14.5037 21.6313 16.1856 19.5639 16.1856C17.4965 16.1856 15.8145 14.5037 15.8145 12.4363C15.8145 11.7532 15.9999 11.0846 16.3508 10.503C16.4845 10.2813 16.4132 9.99327 16.1915 9.85954C15.9698 9.72582 15.6818 9.79711 15.5481 10.0188C15.1091 10.7465 14.8771 11.5825 14.8771 12.4363C14.8771 15.0206 16.9796 17.1231 19.5639 17.1231C22.1482 17.1231 24.2507 15.0206 24.2507 12.4363C24.2507 9.85195 22.1481 7.74942 19.5638 7.74942Z" fill="white"/>
<path d="M21.26 13.8011C21.8183 13.3727 22.1251 12.4958 21.5518 11.5028C21.0983 10.7174 20.204 10.0151 19.6851 9.87607C19.6057 9.85475 19.522 9.85475 19.4425 9.87607C18.9236 10.0151 18.0294 10.7174 17.5759 11.5028C17.0026 12.4958 17.3093 13.3727 17.8677 13.8011C18.1457 14.0144 18.4713 14.1193 18.7963 14.1193C18.8136 14.1193 18.8309 14.119 18.8482 14.1184C18.826 14.1405 18.8024 14.1619 18.7774 14.1826C18.6252 14.3086 18.5685 14.5165 18.6354 14.7024C18.7025 14.8883 18.8788 15.0122 19.0764 15.0122H20.0513C20.2489 15.0122 20.4253 14.8883 20.4922 14.7025C20.5592 14.5166 20.5025 14.3086 20.3503 14.1826C20.3254 14.1619 20.3017 14.1405 20.2796 14.1184C20.6215 14.1302 20.9672 14.0257 21.26 13.8011ZM19.8953 12.9935C19.7122 12.8105 19.4155 12.8105 19.2323 12.9935C18.9706 13.2552 18.6372 13.21 18.4384 13.0574C18.1444 12.8318 18.1254 12.4259 18.3877 11.9715C18.6922 11.4442 19.2572 10.987 19.5638 10.8312C19.8705 10.987 20.4355 11.4442 20.7399 11.9715C21.0023 12.4259 20.9833 12.8318 20.6893 13.0574C20.4903 13.2101 20.1569 13.2552 19.8953 12.9935Z" fill="white"/>
<path d="M17.4554 9.25185C17.5447 9.25185 17.6351 9.22635 17.7151 9.17305C17.9305 9.02949 17.9886 8.73846 17.845 8.52308C17.7015 8.30766 17.4104 8.24954 17.1951 8.39311L17.1948 8.39329C16.9794 8.53686 16.9213 8.8278 17.0649 9.04317C17.1553 9.17858 17.3039 9.25185 17.4554 9.25185Z" fill="white"/>
</g>
<defs>
<clipPath id="clip0_66_4902">
<rect width="24" height="24" fill="white" transform="translate(4 4)"/>
</clipPath>
</defs>
</svg>
