<svg width="32" height="32" viewBox="0 0 32 32" fill="none" xmlns="http://www.w3.org/2000/svg">
<path d="M24.1435 9.71139V8.34855H25.3803C25.6392 8.34855 25.849 8.13869 25.849 7.8798V4.46875C25.849 4.20986 25.6392 4 25.3803 4H20.2637C20.0048 4 19.795 4.20986 19.795 4.46875V11.1412C19.795 11.2834 19.8595 11.4179 19.9705 11.5069C21.4848 12.7209 22.3533 14.5285 22.3533 16.4663C22.3533 19.9695 19.5032 22.8196 16 22.8196C13.2268 22.8196 10.7951 21.0466 9.94917 18.4077C9.87014 18.1612 9.60614 18.0252 9.35967 18.1045C9.11316 18.1835 8.97736 18.4474 9.05639 18.6939C9.52425 20.1534 10.4254 21.4095 11.6623 22.3267C12.9245 23.2625 14.4244 23.7571 16 23.7571C20.0201 23.7571 23.2908 20.4865 23.2908 16.4663C23.2908 14.3186 22.3613 12.3103 20.7325 10.9206V4.9375H24.9116V7.41105H23.6748C23.4159 7.41105 23.2061 7.62091 23.2061 7.8798V9.89369C23.2061 10.0123 23.251 10.1265 23.3319 10.2133C25.0655 12.0733 26.0202 14.4986 26.0202 17.0424C26.0201 22.5675 21.5251 27.0625 16 27.0625C10.4749 27.0625 5.97984 22.5675 5.97984 17.0424C5.97984 14.4985 6.93455 12.0733 8.66808 10.2132C8.74894 10.1265 8.79394 10.0122 8.79394 9.89364V7.8798C8.79394 7.62091 8.58408 7.41105 8.32519 7.41105H7.08839V4.9375H11.2674V10.9207C10.233 11.8035 9.47067 12.9461 9.0562 14.2387C8.97713 14.4852 9.11292 14.7491 9.35944 14.8282C9.60595 14.9073 9.86986 14.7715 9.94894 14.5249C10.3302 13.3361 11.0496 12.2925 12.0294 11.5069C12.1403 11.4179 12.2049 11.2834 12.2049 11.1412V4.46875C12.2049 4.20986 11.9951 4 11.7362 4H6.61964C6.36075 4 6.15089 4.20986 6.15089 4.46875V7.8798C6.15089 8.13869 6.36075 8.34855 6.61964 8.34855H7.85639V9.71139C6.04022 11.7269 5.0423 14.3227 5.0423 17.0424C5.0423 19.9692 6.18206 22.721 8.25173 24.7906C10.3214 26.8602 13.0731 28 16 28C18.9269 28 21.6786 26.8602 23.7482 24.7906C25.8178 22.721 26.9576 19.9693 26.9576 17.0424C26.9576 14.3227 25.9597 11.7269 24.1435 9.71139Z" fill="white"/>
<path d="M13.0013 18.4351C13.4566 18.7845 13.9903 18.9563 14.5232 18.9563C14.8472 18.9563 15.1709 18.8928 15.4766 18.7671C15.3739 19.1695 15.1295 19.5423 14.7636 19.8454C14.6114 19.9715 14.5546 20.1794 14.6217 20.3653C14.6887 20.5512 14.865 20.6751 15.0627 20.6751H16.9377C17.1352 20.6751 17.3117 20.5512 17.3787 20.3653C17.4456 20.1795 17.3889 19.9715 17.2367 19.8454C16.8708 19.5423 16.6264 19.1695 16.5238 18.767C17.332 19.0996 18.2668 18.997 18.999 18.4351C19.8554 17.778 20.4871 16.3725 19.4489 14.5743C18.6532 13.1961 17.0359 11.8921 16.1215 11.6471C16.0421 11.6258 15.9583 11.6258 15.8788 11.6471C14.9645 11.8921 13.3471 13.1961 12.5514 14.5743C11.5131 16.3725 12.1448 17.778 13.0013 18.4351ZM13.3632 15.043C14.0156 13.9132 15.3232 12.8556 16.0001 12.5929C16.6769 12.8556 17.9846 13.9131 18.6369 15.043C19.3709 16.3143 19.0103 17.2446 18.4281 17.6913C17.9004 18.0963 17.0193 18.2189 16.3315 17.5312C16.1484 17.3481 15.8517 17.3482 15.6686 17.5312C14.9809 18.2189 14.0996 18.0963 13.5719 17.6913C12.9898 17.2446 12.6293 16.3143 13.3632 15.043Z" fill="white"/>
<path d="M16.4689 25.4099C16.4689 25.151 16.2591 24.9411 16.0002 24.9411H15.9998C15.7409 24.9411 15.5312 25.151 15.5312 25.4099C15.5312 25.6687 15.7413 25.8786 16.0002 25.8786C16.2591 25.8786 16.4689 25.6687 16.4689 25.4099Z" fill="white"/>
<path d="M13.6858 25.574C13.893 25.574 14.0825 25.4355 14.1385 25.2259C14.2052 24.9758 14.0564 24.7189 13.8063 24.6522L13.806 24.6521C13.5557 24.5853 13.2992 24.7341 13.2325 24.9843C13.1658 25.2345 13.3146 25.4913 13.5648 25.558C13.6052 25.5688 13.6458 25.574 13.6858 25.574Z" fill="white"/>
<path d="M11.528 24.6805C11.6854 24.6805 11.8391 24.6013 11.9277 24.4574C12.0634 24.2369 11.9946 23.9482 11.7741 23.8125L11.7739 23.8123C11.5534 23.6766 11.2648 23.7455 11.1291 23.9659C10.9934 24.1864 11.0623 24.4752 11.2828 24.6109C11.3594 24.6581 11.4442 24.6805 11.528 24.6805Z" fill="white"/>
<path d="M10.0077 23.1219C10.1907 22.9388 10.1907 22.642 10.0077 22.4589L10.0074 22.4587C9.82439 22.2756 9.52772 22.2758 9.34463 22.4588C9.16153 22.6419 9.16167 22.9388 9.34472 23.1219C9.43627 23.2134 9.55622 23.2592 9.67617 23.2592C9.79613 23.2592 9.91613 23.2134 10.0077 23.1219Z" fill="white"/>
<path d="M18.3147 25.5739C18.3546 25.5739 18.3953 25.5688 18.4357 25.558C18.6859 25.4913 18.8346 25.2344 18.7679 24.9843C18.7012 24.7342 18.4443 24.5855 18.1942 24.6521L18.1939 24.6522C17.9437 24.7189 17.7952 24.9758 17.8619 25.2259C17.9178 25.4356 18.1074 25.5739 18.3147 25.5739Z" fill="white"/>
<path d="M20.4723 24.6804C20.5512 24.6804 20.6312 24.6605 20.7046 24.6185C20.9293 24.4901 21.0074 24.2037 20.879 23.979C20.7505 23.7542 20.4642 23.6762 20.2394 23.8045L20.2391 23.8047C20.0143 23.9332 19.9364 24.2194 20.0648 24.4442C20.1513 24.5955 20.3095 24.6804 20.4723 24.6804Z" fill="white"/>
<path d="M22.3242 23.259C22.4301 23.259 22.5366 23.2233 22.6242 23.1503C22.8231 22.9845 22.85 22.689 22.6842 22.4901C22.5185 22.2912 22.2229 22.2643 22.024 22.4301L22.0238 22.4303C21.8249 22.5961 21.7982 22.8915 21.9639 23.0904C22.0566 23.2016 22.1899 23.259 22.3242 23.259Z" fill="white"/>
<path d="M9.17806 15.9976C8.91917 15.9976 8.7095 16.2074 8.7095 16.4663C8.7095 16.7252 8.9195 16.9351 9.17839 16.9351C9.43728 16.9351 9.64714 16.7252 9.64714 16.4663C9.64714 16.2074 9.43728 15.9976 9.17839 15.9976H9.17806Z" fill="white"/>
</svg>
